HIERARCHY
ROOT mixamorig:Hips
{
	OFFSET 0.000000 201.639420 0.000000
	CHANNELS 6 Xposition Yposition Zposition Xrotation Yrotation Zrotation
	JOINT mixamorig:Spine
	{
		OFFSET 0.006200 19.524994 -2.481800
		CHANNELS 3 Xrotation Yrotation Zrotation
		JOINT mixamorig:Spine1
		{
			OFFSET -0.000900 22.835007 -2.825400
			CHANNELS 3 Xrotation Yrotation Zrotation
			JOINT mixamorig:Spine2
			{
				OFFSET -0.020600 26.552490 -3.193300
				CHANNELS 3 Xrotation Yrotation Zrotation
				JOINT mixamorig:Neck
				{
					OFFSET -0.060000 30.701813 1.352200
					CHANNELS 3 Xrotation Yrotation Zrotation
					JOINT mixamorig:Head
					{
						OFFSET -0.087200 22.547607 3.670900
						CHANNELS 3 Xrotation Yrotation Zrotation
						JOINT mixamorig:HeadTop_End
						{
							OFFSET -0.830600 40.355194 7.893500
							CHANNELS 3 Xrotation Yrotation Zrotation
							End Site
							{
								OFFSET 0.000000 30.592346 0.000000
							}
						}
						JOINT mixamorig:RightEye
						{
							OFFSET -6.302100 18.118591 16.197100
							CHANNELS 3 Xrotation Yrotation Zrotation
							End Site
							{
								OFFSET 0.000000 30.592346 0.000000
							}
						}
						JOINT mixamorig:LeftEye
						{
							OFFSET 6.741500 18.382690 16.401899
							CHANNELS 3 Xrotation Yrotation Zrotation
							End Site
							{
								OFFSET 0.000000 30.592346 0.000000
							}
						}
					}
				}
				JOINT mixamorig:LeftShoulder
				{
					OFFSET 11.924900 18.230499 1.425400
					CHANNELS 3 Xrotation Yrotation Zrotation
					JOINT mixamorig:LeftArm
					{
						OFFSET 25.435989 -0.697632 -5.229300
						CHANNELS 3 Xrotation Yrotation Zrotation
						JOINT mixamorig:LeftForeArm
						{
							OFFSET 54.684776 0.000000 0.000000
							CHANNELS 3 Xrotation Yrotation Zrotation
							JOINT mixamorig:LeftHand
							{
								OFFSET 55.098175 0.000000 0.000000
								CHANNELS 3 Xrotation Yrotation Zrotation
								JOINT mixamorig:LeftHandMiddle1
								{
									OFFSET 23.369751 0.000000 0.000000
									CHANNELS 3 Xrotation Yrotation Zrotation
									JOINT mixamorig:LeftHandMiddle2
									{
										OFFSET 6.378677 0.000000 0.000000
										CHANNELS 3 Xrotation Yrotation Zrotation
										JOINT mixamorig:LeftHandMiddle3
										{
											OFFSET 6.148331 0.000000 0.000000
											CHANNELS 3 Xrotation Yrotation Zrotation
											JOINT mixamorig:LeftHandMiddle4
											{
												OFFSET 6.582504 0.000000 0.000000
												CHANNELS 3 Xrotation Yrotation Zrotation
												End Site
												{
													OFFSET -1.168900 6.395691 1.028606
												}
											}
										}
									}
								}
								JOINT mixamorig:LeftHandThumb1
								{
									OFFSET 7.235672 -3.848206 5.434273
									CHANNELS 3 Xrotation Yrotation Zrotation
									JOINT mixamorig:LeftHandThumb2
									{
										OFFSET 6.568451 -3.792297 3.792300
										CHANNELS 3 Xrotation Yrotation Zrotation
										JOINT mixamorig:LeftHandThumb3
										{
											OFFSET 6.063080 -3.500519 3.500518
											CHANNELS 3 Xrotation Yrotation Zrotation
											JOINT mixamorig:LeftHandThumb4
											{
												OFFSET 4.793182 -2.767334 2.767349
												CHANNELS 3 Xrotation Yrotation Zrotation
												End Site
												{
													OFFSET 0.101639 6.054260 1.275483
												}
											}
										}
									}
								}
								JOINT mixamorig:LeftHandIndex1
								{
									OFFSET 23.101074 -0.309540 4.992809
									CHANNELS 3 Xrotation Yrotation Zrotation
									JOINT mixamorig:LeftHandIndex2
									{
										OFFSET 6.226883 0.000000 0.000000
										CHANNELS 3 Xrotation Yrotation Zrotation
										JOINT mixamorig:LeftHandIndex3
										{
											OFFSET 6.094330 0.000000 0.000000
											CHANNELS 3 Xrotation Yrotation Zrotation
											JOINT mixamorig:LeftHandIndex4
											{
												OFFSET 5.482605 0.000000 0.000000
												CHANNELS 3 Xrotation Yrotation Zrotation
												End Site
												{
													OFFSET -1.427902 5.233032 0.797164
												}
											}
										}
									}
								}
								JOINT mixamorig:LeftHandRing1
								{
									OFFSET 22.299240 0.021149 -3.964172
									CHANNELS 3 Xrotation Yrotation Zrotation
									JOINT mixamorig:LeftHandRing2
									{
										OFFSET 6.321869 0.000000 0.000000
										CHANNELS 3 Xrotation Yrotation Zrotation
										JOINT mixamorig:LeftHandRing3
										{
											OFFSET 5.899796 0.000000 0.000000
											CHANNELS 3 Xrotation Yrotation Zrotation
											JOINT mixamorig:LeftHandRing4
											{
												OFFSET 6.517899 0.000000 0.000000
												CHANNELS 3 Xrotation Yrotation Zrotation
												End Site
												{
													OFFSET -1.637299 6.232208 0.980890
												}
											}
										}
									}
								}
								JOINT mixamorig:LeftHandPinky1
								{
									OFFSET 20.463791 -0.302338 -8.562233
									CHANNELS 3 Xrotation Yrotation Zrotation
									JOINT mixamorig:LeftHandPinky2
									{
										OFFSET 6.908646 0.000000 0.000000
										CHANNELS 3 Xrotation Yrotation Zrotation
										JOINT mixamorig:LeftHandPinky3
										{
											OFFSET 4.622849 0.000000 0.000000
											CHANNELS 3 Xrotation Yrotation Zrotation
											JOINT mixamorig:LeftHandPinky4
											{
												OFFSET 5.216080 0.000000 0.000000
												CHANNELS 3 Xrotation Yrotation Zrotation
												End Site
												{
													OFFSET -0.606308 5.116241 0.814926
												}
											}
										}
									}
								}
							}
						}
					}
				}
				JOINT mixamorig:RightShoulder
				{
					OFFSET -12.001300 18.284088 1.348900
					CHANNELS 3 Xrotation Yrotation Zrotation
					JOINT mixamorig:RightArm
					{
						OFFSET -25.308500 -0.751312 -5.164599
						CHANNELS 3 Xrotation Yrotation Zrotation
						JOINT mixamorig:RightForeArm
						{
							OFFSET -54.684429 0.000000 0.000000
							CHANNELS 3 Xrotation Yrotation Zrotation
							JOINT mixamorig:RightHand
							{
								OFFSET -55.150291 0.000000 0.000000
								CHANNELS 3 Xrotation Yrotation Zrotation
								JOINT mixamorig:RightHandMiddle1
								{
									OFFSET -23.317566 0.000000 0.000000
									CHANNELS 3 Xrotation Yrotation Zrotation
									JOINT mixamorig:RightHandMiddle2
									{
										OFFSET -6.378403 0.000000 0.000000
										CHANNELS 3 Xrotation Yrotation Zrotation
										JOINT mixamorig:RightHandMiddle3
										{
											OFFSET -6.148193 0.000000 0.000000
											CHANNELS 3 Xrotation Yrotation Zrotation
											JOINT mixamorig:RightHandMiddle4
											{
												OFFSET -6.583389 0.000000 0.000000
												CHANNELS 3 Xrotation Yrotation Zrotation
												End Site
												{
													OFFSET 1.171692 6.395905 1.029786
												}
											}
										}
									}
								}
								JOINT mixamorig:RightHandThumb1
								{
									OFFSET -7.190521 -3.860474 5.435846
									CHANNELS 3 Xrotation Yrotation Zrotation
									JOINT mixamorig:RightHandThumb2
									{
										OFFSET -6.567429 -3.791718 3.791708
										CHANNELS 3 Xrotation Yrotation Zrotation
										JOINT mixamorig:RightHandThumb3
										{
											OFFSET -6.062469 -3.500153 3.500166
											CHANNELS 3 Xrotation Yrotation Zrotation
											JOINT mixamorig:RightHandThumb4
											{
												OFFSET -4.792618 -2.767029 2.767022
												CHANNELS 3 Xrotation Yrotation Zrotation
												End Site
												{
													OFFSET -0.100327 6.053253 1.276754
												}
											}
										}
									}
								}
								JOINT mixamorig:RightHandIndex1
								{
									OFFSET -23.048981 -0.310791 4.992554
									CHANNELS 3 Xrotation Yrotation Zrotation
									JOINT mixamorig:RightHandIndex2
									{
										OFFSET -6.227539 0.000000 0.000000
										CHANNELS 3 Xrotation Yrotation Zrotation
										JOINT mixamorig:RightHandIndex3
										{
											OFFSET -6.095047 0.000000 0.000000
											CHANNELS 3 Xrotation Yrotation Zrotation
											JOINT mixamorig:RightHandIndex4
											{
												OFFSET -5.484772 0.000000 0.000000
												CHANNELS 3 Xrotation Yrotation Zrotation
												End Site
												{
													OFFSET 1.420593 5.237305 0.797056
												}
											}
										}
									}
								}
								JOINT mixamorig:RightHandRing1
								{
									OFFSET -22.246323 0.020569 -3.963762
									CHANNELS 3 Xrotation Yrotation Zrotation
									JOINT mixamorig:RightHandRing2
									{
										OFFSET -6.322128 0.000000 0.000000
										CHANNELS 3 Xrotation Yrotation Zrotation
										JOINT mixamorig:RightHandRing3
										{
											OFFSET -5.900024 0.000000 0.000000
											CHANNELS 3 Xrotation Yrotation Zrotation
											JOINT mixamorig:RightHandRing4
											{
												OFFSET -6.518356 0.000000 0.000000
												CHANNELS 3 Xrotation Yrotation Zrotation
												End Site
												{
													OFFSET 1.636398 6.232697 0.982186
												}
											}
										}
									}
								}
								JOINT mixamorig:RightHandPinky1
								{
									OFFSET -20.411011 -0.303314 -8.561701
									CHANNELS 3 Xrotation Yrotation Zrotation
									JOINT mixamorig:RightHandPinky2
									{
										OFFSET -6.907349 0.000000 0.000000
										CHANNELS 3 Xrotation Yrotation Zrotation
										JOINT mixamorig:RightHandPinky3
										{
											OFFSET -4.623840 0.000000 0.000000
											CHANNELS 3 Xrotation Yrotation Zrotation
											JOINT mixamorig:RightHandPinky4
											{
												OFFSET -5.218353 0.000000 0.000000
												CHANNELS 3 Xrotation Yrotation Zrotation
												End Site
												{
													OFFSET 0.602097 5.118835 0.816273
												}
											}
										}
									}
								}
							}
						}
					}
				}
			}
		}
	}
	JOINT mixamorig:LeftUpLeg
	{
		OFFSET 18.168400 -13.561905 -0.039000
		CHANNELS 3 Xrotation Yrotation Zrotation
		JOINT mixamorig:LeftLeg
		{
			OFFSET 0.577358 -80.825211 -3.695000
			CHANNELS 3 Xrotation Yrotation Zrotation
			JOINT mixamorig:LeftFoot
			{
				OFFSET -0.577356 -83.370262 -6.520700
				CHANNELS 3 Xrotation Yrotation Zrotation
				JOINT mixamorig:LeftToeBase
				{
					OFFSET 0.750401 -20.798306 25.135401
					CHANNELS 3 Xrotation Yrotation Zrotation
					JOINT mixamorig:LeftToe_End
					{
						OFFSET -0.000500 0.001200 19.917799
						CHANNELS 3 Xrotation Yrotation Zrotation
						End Site
						{
							OFFSET 0.000000 19.917805 0.000000
						}
					}
				}
			}
		}
	}
	JOINT mixamorig:RightUpLeg
	{
		OFFSET -18.162500 -13.585098 -0.041000
		CHANNELS 3 Xrotation Yrotation Zrotation
		JOINT mixamorig:RightLeg
		{
			OFFSET -0.595024 -80.945297 -3.631900
			CHANNELS 3 Xrotation Yrotation Zrotation
			JOINT mixamorig:RightFoot
			{
				OFFSET 0.595024 -83.218193 -6.561200
				CHANNELS 3 Xrotation Yrotation Zrotation
				JOINT mixamorig:RightToeBase
				{
					OFFSET -0.753601 -20.807106 25.115000
					CHANNELS 3 Xrotation Yrotation Zrotation
					JOINT mixamorig:RightToe_End
					{
						OFFSET 0.000299 0.001700 19.918200
						CHANNELS 3 Xrotation Yrotation Zrotation
						End Site
						{
							OFFSET 0.000000 19.918203 0.000000
						}
					}
				}
			}
		}
	}
}
MOTION
Frames: 5
Frame Time: 0.033333
11.652164 177.919113 24.035669 6.852068 -26.341028 -1.999309 10.539732 4.322952 -2.990793 2.359044 0.697717 -0.485813 2.360791 0.696655 -0.475102 5.207772 3.447297 -0.135354 -19.832356 16.427797 4.102011 0.000000 0.000000 -0.000000 0.000000 0.000000 -0.000000 0.000000 0.000000 -0.000000 0.936104 4.027157 -12.200997 -8.579553 -24.542827 -45.508099 0.000010 -64.067031 0.000002 -67.738292 -7.649347 9.667776 -0.461472 3.841577 -39.722686 6.450737 5.820343 -95.892851 2.182888 4.561561 -51.127719 0.000001 -0.000001 -0.000001 -6.141206 -11.690810 -6.761690 9.914081 42.595532 3.409871 -0.422811 8.108106 27.509101 0.000001 0.000000 -0.000000 0.255311 3.378204 -45.814341 5.654089 5.847748 -88.067462 2.162139 4.544823 -50.866386 0.000001 -0.000000 -0.000001 0.469720 4.966829 -39.799447 8.181049 5.368631 -113.502977 3.200488 5.218114 -63.022982 0.000001 0.000002 0.000001 -3.762422 9.063682 -45.253825 5.342527 5.829003 -85.005283 8.716856 5.103350 -119.369181 0.000001 -0.000002 -0.000001 0.488821 4.235114 18.735293 -24.838519 30.229318 62.491272 0.000027 49.551489 -0.000037 -56.601778 13.193695 -6.284262 -0.761618 -2.932906 39.031055 5.133887 -4.632770 95.881635 1.739737 -3.631693 51.181370 0.000000 -0.000001 -0.000001 -7.341104 13.749653 7.412323 9.855770 -44.489093 -3.903264 -0.115796 -14.513073 -28.973878 0.000002 -0.000001 0.000002 -0.124377 -2.384785 45.108861 4.500558 -4.654511 88.071137 1.723226 -3.618374 50.920119 0.000001 -0.000003 0.000003 0.154765 -4.068821 39.122664 6.509730 -4.273602 113.462850 2.549578 -4.153902 63.067324 -0.000002 -0.000001 0.000002 -4.198871 -8.025513 44.637776 4.252918 -4.639631 85.014832 6.935955 -4.062609 119.322312 0.000004 -0.000001 -0.000003 -45.527937 0.473062 10.935584 62.796226 -9.838702 4.028189 -23.191836 -16.022555 -2.598214 -1.594035 -0.000012 0.000002 -0.000000 0.000003 0.000000 -12.026845 -19.742764 -17.144699 30.572053 -10.572516 -9.692380 -3.146834 -23.529356 24.582635 -4.201946 0.000019 0.000002 0.000000 0.000000 0.000000 
11.275423 178.084885 21.956873 6.145565 -27.561021 -2.239546 10.514800 4.239736 -2.684701 2.276825 0.682572 -0.440939 2.278280 0.681514 -0.431753 5.376208 3.362689 -0.251314 -19.707078 16.417944 3.059776 -0.000000 0.000000 0.000000 -0.000000 0.000000 0.000000 -0.000000 0.000000 0.000000 1.061870 4.916068 -11.801114 -11.076486 -22.560207 -47.132321 -0.000018 -65.535617 -0.000034 -61.489488 -6.853918 4.005570 -0.461473 3.841579 -39.722686 6.450737 5.820343 -95.892851 2.182888 4.561561 -51.127719 0.000001 0.000002 -0.000002 -6.141203 -11.690816 -6.761691 9.914075 42.595536 3.409873 -0.422813 8.108105 27.509094 0.000001 0.000003 0.000001 0.255314 3.378208 -45.814341 5.654080 5.847745 -88.067462 2.162140 4.544811 -50.866382 -0.000000 0.000001 0.000001 0.469722 4.966831 -39.799447 8.181052 5.368626 -113.502984 3.200486 5.218117 -63.022982 0.000001 -0.000000 -0.000004 -3.762423 9.063681 -45.253825 5.342521 5.829003 -85.005290 8.716856 5.103351 -119.369181 -0.000002 -0.000001 -0.000000 0.450017 4.483898 18.144869 -24.032306 32.905498 63.079980 -0.000003 52.790600 -0.000003 -53.745645 14.067172 -2.706418 -0.761619 -2.932906 39.031051 5.133890 -4.632769 95.881629 1.739737 -3.631694 51.181374 0.000005 -0.000001 -0.000001 -7.341105 13.749653 7.412322 9.855774 -44.489089 -3.903268 -0.115802 -14.513071 -28.973881 0.000000 -0.000000 -0.000000 -0.124376 -2.384786 45.108861 4.500563 -4.654510 88.071130 1.723225 -3.618379 50.920119 0.000002 0.000000 0.000001 0.154766 -4.068825 39.122668 6.509727 -4.273601 113.462857 2.549579 -4.153905 63.067324 -0.000002 -0.000000 -0.000001 -4.198874 -8.025518 44.637776 4.252915 -4.639628 85.014832 6.935955 -4.062607 119.322312 -0.000002 0.000001 -0.000000 -45.051754 0.593673 11.679993 62.327716 -9.512626 4.155355 -22.805143 -15.618599 -3.424249 -1.594035 -0.000010 0.000002 0.000000 0.000002 -0.000000 -11.881642 -19.705997 -17.165073 30.134293 -10.461609 -9.587237 -3.971805 -22.674720 25.943330 -2.986646 0.000010 -0.000005 -0.000000 0.000000 0.000000 
10.865892 178.603516 19.459249 5.442873 -28.886195 -2.208265 10.418052 4.288285 -2.614429 2.286334 0.688603 -0.423929 2.287636 0.688237 -0.414444 5.894240 3.214783 -0.299586 -18.897252 16.102707 2.096644 -0.000000 -0.000000 0.000000 -0.000000 -0.000000 0.000000 -0.000000 -0.000000 0.000000 1.126743 5.808018 -10.896411 -14.566732 -20.112095 -47.753742 -0.000074 -67.416494 -0.000080 -54.665504 -5.105574 -3.044522 -0.461473 3.841577 -39.722683 6.450740 5.820344 -95.892851 2.182888 4.561560 -51.127723 -0.000002 -0.000001 -0.000001 -6.141205 -11.690816 -6.761692 9.914074 42.595536 3.409873 -0.422811 8.108105 27.509101 0.000002 -0.000002 0.000001 0.255309 3.378207 -45.814341 5.654084 5.847744 -88.067469 2.162143 4.544816 -50.866389 -0.000000 -0.000000 0.000001 0.469723 4.966830 -39.799444 8.181048 5.368626 -113.502977 3.200486 5.218117 -63.022982 -0.000001 0.000002 0.000006 -3.762428 9.063685 -45.253825 5.342523 5.829000 -85.005290 8.716856 5.103346 -119.369181 -0.000003 0.000001 0.000001 0.369350 5.216239 17.153171 -23.710040 35.657122 62.182363 -0.000005 57.272386 0.000009 -49.066259 14.828276 1.262871 -0.761620 -2.932906 39.031051 5.133889 -4.632769 95.881635 1.739739 -3.631694 51.181374 -0.000001 0.000001 -0.000001 -7.341110 13.749653 7.412323 9.855778 -44.489089 -3.903263 -0.115799 -14.513068 -28.973884 -0.000003 -0.000004 -0.000000 -0.124378 -2.384786 45.108861 4.500560 -4.654510 88.071137 1.723224 -3.618375 50.920119 0.000003 -0.000001 -0.000001 0.154763 -4.068823 39.122664 6.509726 -4.273601 113.462850 2.549580 -4.153906 63.067317 -0.000001 0.000001 0.000003 -4.198876 -8.025514 44.637772 4.252918 -4.639629 85.014832 6.935955 -4.062613 119.322298 -0.000002 -0.000000 0.000003 -44.355156 0.978536 12.445040 61.181597 -9.544846 4.051135 -21.930096 -15.027330 -4.133054 -1.594035 -0.000012 0.000002 0.000000 -0.000002 -0.000000 -12.032905 -19.510398 -17.551071 29.616885 -10.442202 -9.470500 -4.130633 -21.099224 27.862500 -2.448213 0.000014 0.000004 -0.000000 0.000000 -0.000000 
10.401093 179.454468 16.706043 4.787364 -30.363056 -2.086413 10.303027 4.411729 -2.631703 2.260548 0.708630 -0.405860 2.261607 0.709114 -0.396394 6.396237 3.143148 -0.329321 -17.800154 16.128390 1.292861 -0.000002 0.000000 -0.000000 -0.000002 0.000000 -0.000000 -0.000002 0.000000 -0.000000 1.117145 6.647508 -9.740515 -18.767369 -17.588372 -47.320339 0.000051 -70.198724 0.000069 -46.209867 -4.811606 -7.791631 -0.461470 3.841579 -39.722693 6.450736 5.820344 -95.892851 2.182885 4.561561 -51.127719 0.000002 0.000001 -0.000001 -6.141203 -11.690814 -6.761690 9.914078 42.595539 3.409874 -0.422810 8.108109 27.509103 0.000003 0.000002 -0.000001 0.255312 3.378209 -45.814337 5.654083 5.847744 -88.067462 2.162142 4.544817 -50.866382 -0.000000 0.000001 0.000002 0.469724 4.966832 -39.799447 8.181050 5.368628 -113.502984 3.200487 5.218118 -63.022982 -0.000001 -0.000001 -0.000001 -3.762425 9.063689 -45.253825 5.342524 5.829000 -85.005283 8.716855 5.103349 -119.369181 -0.000005 0.000001 0.000000 0.254569 6.364510 15.532419 -24.847796 37.670119 61.016047 0.000008 62.742719 -0.000021 -41.020955 14.662680 3.564690 -0.761621 -2.932908 39.031051 5.133889 -4.632771 95.881635 1.739738 -3.631693 51.181374 0.000003 -0.000000 -0.000000 -7.341104 13.749651 7.412320 9.855777 -44.489096 -3.903265 -0.115798 -14.513076 -28.973888 0.000001 0.000002 -0.000001 -0.124377 -2.384786 45.108861 4.500559 -4.654509 88.071137 1.723226 -3.618374 50.920119 -0.000000 0.000000 -0.000001 0.154762 -4.068824 39.122664 6.509727 -4.273601 113.462857 2.549579 -4.153904 63.067317 0.000002 0.000000 0.000000 -4.198878 -8.025515 44.637783 4.252917 -4.639631 85.014839 6.935956 -4.062612 119.322298 -0.000001 -0.000000 0.000000 -43.428522 1.488555 13.262201 59.436279 -9.651850 3.881654 -20.739055 -14.319224 -4.904328 -1.594035 -0.000010 0.000002 0.000000 -0.000000 -0.000000 -13.351390 -19.291946 -18.116848 30.669342 -10.445536 -9.296401 -5.015926 -19.041321 27.195718 -2.436199 0.000011 0.000007 -0.000000 -0.000000 0.000000 
9.919601 180.617264 13.905803 4.265925 -31.854172 -2.082859 10.089491 4.363141 -2.401528 2.185763 0.705254 -0.322798 2.185922 0.708210 -0.314547 6.962447 3.227669 -0.460886 -16.772294 16.932191 0.521966 0.000000 -0.000000 -0.000000 0.000000 -0.000000 -0.000000 0.000000 -0.000000 -0.000000 1.020308 7.514700 -8.406392 -23.657415 -14.406648 -46.256729 0.000051 -73.699162 0.000025 -36.021270 -4.227194 -8.783209 -0.461471 3.841578 -39.722690 6.450739 5.820344 -95.892857 2.182886 4.561563 -51.127723 -0.000001 0.000000 0.000003 -6.141204 -11.690815 -6.761693 9.914076 42.595539 3.409868 -0.422816 8.108111 27.509096 0.000002 0.000001 0.000000 0.255310 3.378208 -45.814341 5.654082 5.847745 -88.067462 2.162143 4.544817 -50.866386 -0.000000 0.000000 -0.000001 0.469723 4.966834 -39.799444 8.181049 5.368627 -113.502977 3.200489 5.218116 -63.022982 -0.000000 0.000000 -0.000000 -3.762425 9.063686 -45.253825 5.342524 5.829000 -85.005283 8.716856 5.103350 -119.369181 -0.000001 0.000000 0.000001 0.115927 7.992468 13.534030 -27.489648 38.920604 60.131722 -0.000054 68.590904 0.000079 -34.933163 14.359571 6.554474 -0.761619 -2.932906 39.031051 5.133889 -4.632772 95.881629 1.739739 -3.631695 51.181374 0.000000 -0.000002 0.000000 -7.341104 13.749651 7.412324 9.855773 -44.489096 -3.903264 -0.115800 -14.513075 -28.973881 -0.000001 -0.000000 0.000000 -0.124376 -2.384785 45.108857 4.500560 -4.654509 88.071137 1.723226 -3.618376 50.920119 0.000002 0.000001 -0.000000 0.154766 -4.068824 39.122664 6.509725 -4.273604 113.462850 2.549579 -4.153905 63.067324 -0.000001 -0.000001 -0.000003 -4.198872 -8.025516 44.637776 4.252917 -4.639631 85.014832 6.935955 -4.062611 119.322298 0.000001 -0.000000 -0.000002 -42.382382 1.997630 14.200689 57.199197 -9.703270 3.771419 -19.332760 -13.673413 -5.786792 -1.594035 -0.000009 0.000002 -0.000000 0.000000 0.000000 -14.383021 -19.028393 -18.123968 31.182300 -10.426459 -9.096665 -5.663325 -17.398968 25.885375 -2.244768 -0.000038 0.000003 -0.000000 0.000001 -0.000000 
